<?xml version="1.0" standalone="no"?>
<!DOCTYPE svg PUBLIC "-//W3C//DTD SVG 20010904//EN"
 "http://www.w3.org/TR/2001/REC-SVG-20010904/DTD/svg10.dtd">
<svg version="1.0" xmlns="http://www.w3.org/2000/svg"
 width="990.000000pt" height="990.000000pt" viewBox="0 0 990.000000 990.000000"
 preserveAspectRatio="xMidYMid meet">
<metadata>
Created by potrace 1.14, written by Peter Selinger 2001-2017
</metadata>
<g transform="translate(0.000000,990.000000) scale(0.100000,-0.100000)"
fill="#000000" stroke="none">
<path d="M985 8273 c-72 -9 -219 -47 -282 -71 -341 -135 -595 -434 -679 -802
-22 -100 -26 -315 -7 -417 20 -109 67 -244 117 -338 24 -44 128 -226 231 -405
103 -179 199 -345 213 -370 14 -25 42 -74 64 -109 21 -34 38 -65 38 -67 0 -2
20 -38 45 -80 25 -41 45 -77 45 -79 0 -2 23 -40 50 -85 28 -45 50 -83 50 -85
0 -3 223 -393 249 -435 5 -8 68 -116 139 -240 145 -251 254 -441 554 -960 112
-195 216 -375 230 -400 14 -25 67 -117 118 -205 51 -88 101 -174 111 -192 10
-17 29 -50 43 -72 15 -22 26 -43 26 -45 0 -3 22 -43 49 -88 27 -46 58 -99 69
-118 300 -527 326 -566 435 -672 207 -202 470 -312 754 -317 316 -6 608 115
827 343 78 82 117 140 256 382 73 126 146 252 162 279 16 28 34 60 40 72 6 13
14 23 17 23 5 0 168 -277 249 -423 104 -189 157 -264 255 -359 207 -202 470
-312 754 -317 316 -6 608 115 827 343 67 71 114 136 178 246 44 77 617 1070
684 1187 11 18 69 119 130 225 189 329 303 526 324 560 11 18 23 40 27 48 4 8
33 59 65 113 32 54 58 100 58 102 0 3 20 37 44 77 48 81 741 1280 789 1368 17
30 48 83 69 118 21 34 38 64 38 66 0 2 18 34 40 70 22 37 53 90 69 119 16 28
69 122 118 207 50 85 102 178 116 207 25 49 75 185 83 226 2 10 5 26 8 35 24
81 29 312 9 420 -63 338 -276 633 -568 789 -90 48 -146 69 -270 101 -87 22
-120 26 -255 25 -171 0 -239 -11 -381 -63 -153 -55 -289 -143 -409 -263 -109
-109 -107 -107 -540 -862 -141 -246 -382 -664 -390 -675 -5 -8 -31 -53 -57
-99 -26 -47 -57 -101 -68 -120 -11 -20 -46 -79 -76 -131 -49 -84 -124 -212
-401 -694 -37 -66 -68 -122 -68 -124 0 -3 -6 -13 -14 -21 -7 -9 -27 -41 -43
-71 -16 -30 -41 -73 -54 -95 -13 -22 -31 -52 -38 -68 -8 -15 -17 -27 -20 -27
-5 0 -32 44 -132 220 -14 25 -63 110 -109 190 -98 172 -162 267 -227 336 -214
228 -492 350 -803 352 -381 2 -722 -177 -928 -487 -31 -47 -124 -204 -207
-348 -82 -145 -153 -263 -156 -263 -3 0 -11 10 -17 23 -7 12 -20 36 -30 52 -9
17 -51 89 -92 160 -41 72 -80 139 -87 150 -7 11 -16 27 -20 35 -4 8 -53 94
-108 190 -107 183 -359 620 -393 680 -11 19 -36 64 -57 100 -21 36 -46 81 -57
100 -11 19 -24 40 -28 45 -4 6 -21 35 -37 65 -17 30 -71 125 -120 210 -50 85
-192 332 -317 549 -231 402 -291 500 -342 560 -163 192 -368 314 -639 381 -49
12 -281 21 -340 13z"/>
</g>
</svg>
