<?xml version="1.0" standalone="no"?>
<!DOCTYPE svg PUBLIC "-//W3C//DTD SVG 20010904//EN"
 "http://www.w3.org/TR/2001/REC-SVG-20010904/DTD/svg10.dtd">
<svg version="1.0" xmlns="http://www.w3.org/2000/svg"
 width="320.000000pt" height="320.000000pt" viewBox="0 0 320.000000 320.000000"
 preserveAspectRatio="xMidYMid meet">
<metadata>
Created by potrace 1.14, written by Peter Selinger 2001-2017
</metadata>
<g transform="translate(0.000000,320.000000) scale(0.100000,-0.100000)"
fill="#000000" stroke="none">
<path d="M2122 3009 c-68 -26 -147 -105 -187 -184 -16 -33 -54 -100 -83 -148
-29 -49 -49 -94 -46 -100 4 -7 3 -9 -1 -5 -11 11 -68 -90 -59 -104 4 -6 3 -8
-4 -5 -6 4 -24 -18 -43 -50 -43 -78 -58 -103 -117 -205 -28 -49 -48 -88 -44
-88 4 0 2 -4 -4 -8 -13 -8 -154 -250 -154 -263 0 -5 -3 -9 -7 -9 -5 0 -13 -10
-19 -23 -26 -52 -377 -653 -387 -664 -9 -9 -55 63 -197 310 -195 339 -228 385
-317 429 -66 32 -196 33 -264 1 -66 -30 -121 -83 -155 -150 -25 -51 -29 -69
-29 -144 0 -106 -30 -47 375 -749 230 -398 327 -557 360 -591 110 -110 293
-119 419 -19 53 42 59 52 296 465 76 132 139 242 141 244 2 2 10 -4 19 -13 9
-9 14 -16 10 -16 -4 0 3 -12 14 -26 12 -15 21 -31 21 -37 0 -6 6 -18 14 -26 7
-9 30 -47 51 -85 20 -38 41 -74 47 -80 5 -6 22 -36 38 -66 16 -30 34 -54 40
-52 6 1 9 -2 5 -8 -4 -6 0 -21 8 -33 8 -12 31 -53 52 -92 52 -96 75 -126 87
-119 7 4 8 2 4 -5 -7 -11 33 -51 84 -82 75 -47 206 -47 294 -2 79 41 97 61
183 213 8 14 23 39 33 55 10 17 29 50 42 75 13 25 26 47 29 50 11 10 83 145
81 153 -1 4 2 7 6 7 5 0 17 17 28 38 10 20 21 39 24 42 16 16 30 52 24 62 -4
6 -3 8 3 5 6 -4 22 14 36 41 52 98 62 117 67 122 8 7 62 98 80 135 8 17 25 45
38 63 13 18 20 32 17 32 -4 0 7 19 24 42 23 31 28 44 18 50 -9 6 -8 8 4 8 19
0 75 122 65 139 -4 6 -3 11 2 11 29 0 -6 189 -44 231 -8 8 -14 19 -14 22 0 4
-12 26 -27 50 -15 23 -40 67 -56 97 -16 30 -35 62 -42 70 -7 8 -14 20 -16 25
-14 37 -63 113 -70 109 -5 -3 -7 1 -4 8 3 7 -5 29 -17 48 -12 19 -27 44 -34
55 -6 11 -20 36 -31 55 -12 19 -58 100 -103 180 -46 80 -86 147 -89 150 -3 3
-16 23 -27 45 -113 214 -151 262 -239 305 -70 34 -179 38 -253 9z m-262 -523
c0 -2 -8 -10 -17 -17 -16 -13 -17 -12 -4 4 13 16 21 21 21 13z m555 -166 c3
-6 -1 -7 -9 -4 -18 7 -21 14 -7 14 6 0 13 -4 16 -10z m-150 -291 c10 -23 25
-43 32 -46 7 -3 11 -9 8 -13 -7 -11 91 -170 100 -162 5 4 5 2 1 -5 -5 -10 55
-128 73 -143 19 -15 30 -62 21 -81 -6 -11 -8 -24 -5 -29 4 -6 2 -9 -4 -8 -10
3 -131 -195 -131 -214 0 -4 -4 -8 -10 -8 -5 0 -10 -5 -10 -11 0 -6 -20 -44
-45 -85 -25 -41 -43 -78 -41 -83 3 -4 -1 -8 -9 -8 -8 0 -15 7 -15 14 0 9 -5
11 -12 7 -7 -4 -10 -4 -6 0 10 12 -42 107 -54 100 -6 -4 -8 -3 -5 3 3 5 -24
61 -60 124 -134 233 -127 217 -108 245 9 13 13 30 9 36 -4 6 -3 8 4 4 6 -3 14
4 18 16 4 13 10 25 13 28 17 14 90 154 84 163 -3 5 -1 7 4 4 13 -8 26 20 16
35 -3 7 -1 8 5 4 7 -4 16 2 22 16 6 13 23 43 39 68 16 25 30 51 30 58 2 23 16
12 36 -29z m-541 -39 c-6 -6 -10 -3 -10 10 0 13 4 16 10 10 7 -7 7 -13 0 -20z
m1326 -194 c-7 -7 -13 -7 -20 0 -6 6 -3 10 10 10 13 0 16 -4 10 -10z m-150
-430 c0 -2 -8 -10 -17 -17 -16 -13 -17 -12 -4 4 13 16 21 21 21 13z m-570
-440 c0 -2 -7 -7 -16 -10 -8 -3 -12 -2 -9 4 6 10 25 14 25 6z m358 -51 c-3 -3
-9 2 -12 12 -6 14 -5 15 5 6 7 -7 10 -15 7 -18z m-673 -35 c-3 -5 -12 -10 -18
-10 -7 0 -6 4 3 10 19 12 23 12 15 0z"/>
</g>
</svg>
