<?xml version="1.0" standalone="no"?>
<!DOCTYPE svg PUBLIC "-//W3C//DTD SVG 20010904//EN"
 "http://www.w3.org/TR/2001/REC-SVG-20010904/DTD/svg10.dtd">
<svg version="1.0" xmlns="http://www.w3.org/2000/svg"
 width="1724.000000pt" height="1724.000000pt" viewBox="0 0 1724.000000 1724.000000"
 preserveAspectRatio="xMidYMid meet">
<metadata>
Created by potrace 1.14, written by Peter Selinger 2001-2017
</metadata>
<g transform="translate(0.000000,1724.000000) scale(0.100000,-0.100000)"
fill="#000000" stroke="none">
<path d="M2060 14167 c-3 -3 -30 -7 -60 -10 -83 -9 -202 -27 -209 -31 -3 -3
-25 -7 -47 -10 -109 -17 -351 -100 -491 -169 -600 -297 -1024 -819 -1187
-1462 -15 -59 -18 -73 -37 -185 -33 -191 -33 -493 1 -705 28 -180 85 -371 164
-551 31 -70 164 -321 186 -349 4 -5 19 -30 32 -55 14 -25 49 -85 78 -135 29
-49 62 -108 75 -130 38 -68 281 -488 304 -525 11 -19 24 -42 28 -50 4 -8 51
-91 105 -183 54 -93 98 -171 98 -174 0 -3 8 -17 19 -31 10 -15 29 -47 43 -72
14 -25 58 -101 98 -170 40 -69 106 -183 147 -255 41 -71 78 -137 84 -145 5 -8
54 -94 109 -190 55 -96 104 -182 110 -190 5 -8 22 -37 37 -65 15 -27 32 -58
38 -67 12 -20 537 -930 587 -1018 157 -274 456 -791 468 -810 6 -8 13 -22 17
-30 4 -8 49 -87 100 -174 51 -87 93 -160 93 -162 0 -2 17 -32 38 -66 21 -35
52 -88 69 -118 17 -30 146 -255 288 -500 141 -245 270 -467 285 -495 15 -27
49 -85 74 -128 25 -43 46 -82 46 -87 0 -6 5 -10 10 -10 6 0 10 -4 10 -9 0 -17
304 -537 369 -631 191 -277 453 -511 766 -684 191 -106 499 -210 710 -240 22
-3 69 -10 105 -16 99 -14 478 -5 585 14 705 128 1254 514 1602 1126 97 170
364 634 452 784 44 76 81 139 81 141 0 2 18 33 39 70 l39 67 25 -38 c13 -22
35 -59 49 -84 45 -80 158 -275 168 -290 6 -8 13 -22 17 -30 4 -8 20 -37 36
-65 16 -27 108 -187 205 -355 235 -411 320 -530 507 -714 349 -344 822 -570
1305 -624 84 -9 428 -9 500 0 216 28 392 74 605 158 73 28 273 135 363 193
113 74 269 201 361 296 164 170 270 315 416 574 50 87 98 172 109 190 45 79
205 356 228 397 14 25 81 142 150 260 69 118 140 242 158 275 18 33 39 67 46
76 8 8 14 18 14 21 0 4 38 72 85 153 47 80 96 165 109 188 13 23 49 87 81 142
157 271 390 675 413 715 14 25 34 59 44 75 10 17 21 37 25 45 3 8 21 39 40 68
18 29 33 54 33 56 0 2 39 71 86 153 48 81 98 168 112 193 14 25 65 114 115
199 49 85 149 258 222 385 73 127 173 301 222 386 153 265 434 753 461 800 14
25 45 78 69 118 24 41 43 76 43 78 0 2 11 21 23 42 30 47 59 96 306 527 111
193 205 357 210 365 14 23 151 260 174 300 11 19 61 107 112 195 160 275 231
434 288 640 43 155 56 220 75 380 11 95 7 433 -7 515 -7 41 -15 89 -17 105
-14 94 -86 346 -123 430 -20 47 -132 273 -154 310 -55 96 -171 255 -235 325
-241 257 -422 395 -697 530 -198 98 -428 173 -600 195 -27 4 -53 9 -56 11 -41
24 -527 25 -645 0 -12 -2 -38 -7 -57 -10 -115 -18 -328 -77 -422 -116 -16 -7
-46 -19 -65 -27 -155 -65 -383 -202 -515 -308 -97 -78 -266 -244 -317 -310
-12 -16 -31 -39 -41 -50 -35 -39 -155 -221 -229 -350 -41 -71 -162 -281 -268
-465 -106 -184 -203 -352 -216 -372 -13 -21 -24 -40 -24 -43 0 -2 -18 -34 -40
-70 -22 -36 -40 -67 -40 -69 0 -2 -18 -34 -40 -70 -22 -36 -40 -70 -40 -75 0
-5 -3 -11 -7 -13 -5 -2 -15 -16 -24 -33 -15 -30 -118 -208 -158 -275 -11 -19
-28 -48 -37 -65 -21 -37 -566 -983 -602 -1045 -15 -25 -32 -54 -39 -65 -7 -11
-15 -26 -19 -34 -4 -8 -76 -133 -159 -278 -143 -247 -153 -261 -169 -244 -9 9
-16 21 -16 25 0 4 -20 40 -43 79 -24 40 -55 92 -69 117 -14 25 -112 196 -218
380 -106 184 -204 355 -218 380 -257 464 -592 786 -1039 1000 -208 101 -473
174 -708 198 -93 9 -391 9 -485 -1 -97 -9 -290 -50 -399 -83 -452 -138 -853
-422 -1138 -806 -71 -96 -110 -160 -336 -553 -107 -187 -237 -412 -288 -500
-51 -88 -104 -181 -118 -207 -25 -46 -41 -60 -41 -37 0 6 -13 30 -30 54 -16
24 -30 46 -30 49 0 4 -18 36 -40 72 -22 36 -40 67 -40 69 0 3 -74 133 -100
175 -5 8 -71 122 -147 254 -76 131 -153 264 -171 295 -18 31 -37 65 -43 76 -5
11 -21 38 -34 60 -13 22 -30 51 -38 65 -8 14 -31 54 -52 90 -20 36 -46 81 -57
100 -11 19 -44 76 -73 125 -29 50 -63 110 -77 135 -14 25 -49 86 -78 135 -29
50 -62 106 -73 125 -88 156 -210 367 -217 375 -4 6 -21 35 -37 65 -17 30 -63
111 -103 180 -40 69 -83 144 -96 167 -13 23 -62 108 -109 188 -47 81 -85 149
-85 152 0 3 -8 17 -19 31 -10 15 -29 47 -43 72 -158 284 -266 442 -402 588
-199 213 -402 365 -656 490 -74 37 -149 72 -165 79 -44 18 -213 72 -238 77
-12 2 -40 9 -62 14 -49 14 -68 17 -255 47 -44 7 -414 17 -420 12z"/>
</g>
</svg>
