<svg
  xmlns="http://www.w3.org/2000/svg"
  width="304"
  height="304"
>
  <path d="M 118 0
           A 38 38, 0, 0, 0, 118 76
           L 266 76
           A 38 38, 0, 0, 0, 266 0"
        style="stroke: none; fill: #000000;"
  />
  <path d="M 38 114
           A 38 38, 0, 0, 0, 38 190
           L 72 190
           A 38 38, 0, 0, 0, 72 114"
        style="stroke: none; fill: #000000;"
  />
  <path d="M 222 114
           A 38 38, 0, 0, 0, 222 190
           L 266 190
           A 38 38, 0, 0, 0, 266 114"
        style="stroke: none; fill: #000000;"
  />
  <path d="M 38 228
           A 38 38, 0, 0, 0, 38 304
           L 186 304
           A 38 38, 0, 0, 0, 186 228"
        style="stroke: none; fill: #000000;"
  />
</svg>
